<?xml version="1.0" encoding="UTF-8" standalone="no"?>
<!DOCTYPE svg PUBLIC "-//W3C//DTD SVG 1.1//EN"
 "http://www.w3.org/Graphics/SVG/1.1/DTD/svg11.dtd">
<!-- Generated by graphviz version 2.48.0 (20210717.1556)
 -->
<!-- Pages: 1 -->
<svg width="852pt" height="332pt"
 viewBox="0.00 0.00 851.71 332.00" xmlns="http://www.w3.org/2000/svg" xmlns:xlink="http://www.w3.org/1999/xlink">
<g id="graph0" class="graph" transform="scale(1 1) rotate(0) translate(4 328)">
<polygon fill="white" stroke="transparent" points="-4,4 -4,-328 847.71,-328 847.71,4 -4,4"/>
<!-- [root] aws_instance.bot_server (expand) -->
<g id="node1" class="node">
<title>[root] aws_instance.bot_server (expand)</title>
<polygon fill="none" stroke="black" points="472.03,-180 318.03,-180 318.03,-144 472.03,-144 472.03,-180"/>
<text text-anchor="middle" x="395.03" y="-158.3" font-family="Times,serif" font-size="14.00">aws_instance.bot_server</text>
</g>
<!-- [root] aws_security_group.main (expand) -->
<g id="node2" class="node">
<title>[root] aws_security_group.main (expand)</title>
<polygon fill="none" stroke="black" points="475.53,-108 314.53,-108 314.53,-72 475.53,-72 475.53,-108"/>
<text text-anchor="middle" x="395.03" y="-86.3" font-family="Times,serif" font-size="14.00">aws_security_group.main</text>
</g>
<!-- [root] aws_instance.bot_server (expand)&#45;&gt;[root] aws_security_group.main (expand) -->
<g id="edge1" class="edge">
<title>[root] aws_instance.bot_server (expand)&#45;&gt;[root] aws_security_group.main (expand)</title>
<path fill="none" stroke="black" d="M395.03,-143.7C395.03,-135.98 395.03,-126.71 395.03,-118.11"/>
<polygon fill="black" stroke="black" points="398.53,-118.1 395.03,-108.1 391.53,-118.1 398.53,-118.1"/>
</g>
<!-- [root] provider[&quot;registry.terraform.io/hashicorp/aws&quot;] -->
<g id="node3" class="node">
<title>[root] provider[&quot;registry.terraform.io/hashicorp/aws&quot;]</title>
<polygon fill="none" stroke="black" points="395.03,-36 136.97,-18 395.03,0 653.1,-18 395.03,-36"/>
<text text-anchor="middle" x="395.03" y="-14.3" font-family="Times,serif" font-size="14.00">provider[&quot;registry.terraform.io/hashicorp/aws&quot;]</text>
</g>
<!-- [root] aws_security_group.main (expand)&#45;&gt;[root] provider[&quot;registry.terraform.io/hashicorp/aws&quot;] -->
<g id="edge2" class="edge">
<title>[root] aws_security_group.main (expand)&#45;&gt;[root] provider[&quot;registry.terraform.io/hashicorp/aws&quot;]</title>
<path fill="none" stroke="black" d="M395.03,-71.7C395.03,-63.98 395.03,-54.71 395.03,-46.11"/>
<polygon fill="black" stroke="black" points="398.53,-46.1 395.03,-36.1 391.53,-46.1 398.53,-46.1"/>
</g>
<!-- [root] meta.count&#45;boundary (EachMode fixup) -->
<g id="node4" class="node">
<title>[root] meta.count&#45;boundary (EachMode fixup)</title>
<ellipse fill="none" stroke="black" cx="180.03" cy="-234" rx="180.07" ry="18"/>
<text text-anchor="middle" x="180.03" y="-230.3" font-family="Times,serif" font-size="14.00">[root] meta.count&#45;boundary (EachMode fixup)</text>
</g>
<!-- [root] meta.count&#45;boundary (EachMode fixup)&#45;&gt;[root] aws_instance.bot_server (expand) -->
<g id="edge3" class="edge">
<title>[root] meta.count&#45;boundary (EachMode fixup)&#45;&gt;[root] aws_instance.bot_server (expand)</title>
<path fill="none" stroke="black" d="M230.17,-216.68C260.76,-206.72 300.11,-193.91 332.69,-183.3"/>
<polygon fill="black" stroke="black" points="334.14,-186.51 342.57,-180.08 331.98,-179.85 334.14,-186.51"/>
</g>
<!-- [root] provider[&quot;registry.terraform.io/hashicorp/aws&quot;] (close) -->
<g id="node5" class="node">
<title>[root] provider[&quot;registry.terraform.io/hashicorp/aws&quot;] (close)</title>
<ellipse fill="none" stroke="black" cx="611.03" cy="-234" rx="232.86" ry="18"/>
<text text-anchor="middle" x="611.03" y="-230.3" font-family="Times,serif" font-size="14.00">[root] provider[&quot;registry.terraform.io/hashicorp/aws&quot;] (close)</text>
</g>
<!-- [root] provider[&quot;registry.terraform.io/hashicorp/aws&quot;] (close)&#45;&gt;[root] aws_instance.bot_server (expand) -->
<g id="edge4" class="edge">
<title>[root] provider[&quot;registry.terraform.io/hashicorp/aws&quot;] (close)&#45;&gt;[root] aws_instance.bot_server (expand)</title>
<path fill="none" stroke="black" d="M559.85,-216.41C529.21,-206.48 490.04,-193.79 457.58,-183.27"/>
<polygon fill="black" stroke="black" points="458.33,-179.83 447.73,-180.08 456.17,-186.49 458.33,-179.83"/>
</g>
<!-- [root] root -->
<g id="node6" class="node">
<title>[root] root</title>
<ellipse fill="none" stroke="black" cx="395.03" cy="-306" rx="48.19" ry="18"/>
<text text-anchor="middle" x="395.03" y="-302.3" font-family="Times,serif" font-size="14.00">[root] root</text>
</g>
<!-- [root] root&#45;&gt;[root] meta.count&#45;boundary (EachMode fixup) -->
<g id="edge5" class="edge">
<title>[root] root&#45;&gt;[root] meta.count&#45;boundary (EachMode fixup)</title>
<path fill="none" stroke="black" d="M360.01,-293.6C327.54,-283.03 278.56,-267.08 239.89,-254.49"/>
<polygon fill="black" stroke="black" points="240.89,-251.13 230.3,-251.36 238.72,-257.79 240.89,-251.13"/>
</g>
<!-- [root] root&#45;&gt;[root] provider[&quot;registry.terraform.io/hashicorp/aws&quot;] (close) -->
<g id="edge6" class="edge">
<title>[root] root&#45;&gt;[root] provider[&quot;registry.terraform.io/hashicorp/aws&quot;] (close)</title>
<path fill="none" stroke="black" d="M430.22,-293.6C462.62,-283.1 511.38,-267.29 550.11,-254.74"/>
<polygon fill="black" stroke="black" points="551.29,-258.04 559.72,-251.63 549.13,-251.38 551.29,-258.04"/>
</g>
</g>
</svg>
